<svg version="1.1" id="Layer_1" xmlns="http://www.w3.org/2000/svg" xmlns:xlink="http://www.w3.org/1999/xlink"
	 viewBox="724 69 1149 983" xml:space="preserve">
<path fill="#1D54AA" opacity="1.000000" stroke="none" 
	d="
M1853.006714,668.001831 
	C1851.562500,698.264282 1823.579224,726.055786 1792.650269,726.835083 
	C1765.500854,727.519104 1738.322632,727.067261 1711.157227,727.116150 
	C1709.018188,727.119995 1706.879150,727.116699 1704.082153,727.116699 
	C1704.082153,729.376953 1704.082153,731.308228 1704.082275,733.239441 
	C1704.088013,800.739319 1704.177246,868.239380 1704.068481,935.739075 
	C1704.001099,977.547058 1676.930786,1015.022400 1637.163818,1027.415283 
	C1627.303833,1030.488037 1616.574463,1032.114746 1606.241699,1032.128418 
	C1401.075806,1032.400513 1195.909424,1032.400879 990.743164,1032.300049 
	C936.045532,1032.273071 892.877930,988.761780 892.816162,933.997559 
	C892.741882,868.164429 892.801758,802.331116 892.803650,736.497925 
	C892.803772,733.676392 892.803711,730.854797 892.803711,727.120361 
	C890.455444,727.120361 888.384033,727.119812 886.312622,727.120422 
	C861.479370,727.127258 836.633057,726.626221 811.815918,727.262573 
	C776.314575,728.172913 743.936462,699.873596 744.085754,659.181213 
	C744.370117,581.682434 744.193115,504.181854 744.145996,426.682068 
	C744.102051,354.476746 798.801575,294.785645 870.809692,288.928864 
	C882.574341,287.971985 894.449341,288.367462 906.273499,288.149109 
	C908.060425,288.116089 909.848511,288.144470 912.184387,288.144470 
	C912.184387,284.435944 912.184570,281.145782 912.184326,277.855621 
	C912.180725,235.189056 912.176758,192.522491 912.173706,149.855927 
	C912.171143,113.642593 936.799072,88.988213 973.061462,88.988922 
	C1184.561279,88.993057 1396.061035,88.994568 1607.560913,89.084854 
	C1618.529907,89.089531 1629.735229,88.617340 1640.421265,90.587143 
	C1667.779785,95.630249 1686.128296,118.722610 1686.247437,146.946213 
	C1686.402100,183.612122 1686.278076,220.279221 1686.274536,256.945801 
	C1686.273560,267.091095 1686.274414,277.236389 1686.274414,288.208984 
	C1688.689209,288.208984 1690.762085,288.210175 1692.834839,288.208801 
	C1710.984253,288.196899 1729.107178,287.691925 1747.061523,291.706848 
	C1800.950073,303.757233 1843.677490,349.164734 1852.005005,403.721619 
	C1852.431396,406.515594 1852.705688,409.332733 1852.744385,412.878723 
	C1852.311279,414.930023 1852.074097,416.241699 1852.073853,417.553436 
	C1852.054932,499.465302 1852.050293,581.377197 1852.094116,663.289062 
	C1852.094971,664.860107 1852.689209,666.430908 1853.006714,668.001831 
M1725.500000,475.309906 
	C1420.771606,475.309906 1116.043335,475.309906 811.029846,475.309906 
	C811.029846,477.609192 811.030029,479.260956 811.029785,480.912750 
	C811.025452,516.741150 811.022644,552.569580 811.015991,588.398010 
	C811.012573,607.062073 810.952209,625.726379 811.016052,644.390198 
	C811.049683,654.233032 816.735901,659.791016 826.593140,659.882080 
	C828.925964,659.903625 831.259216,659.887634 833.592224,659.887512 
	C958.575134,659.879639 1083.558105,659.865417 1208.541016,659.865173 
	C1395.515503,659.864807 1582.490112,659.874207 1769.464600,659.879333 
	C1769.797852,659.879333 1770.131226,659.878723 1770.464478,659.876709 
	C1781.133911,659.813660 1786.862305,654.192322 1786.868042,643.571289 
	C1786.897339,588.412170 1786.889526,533.253052 1786.883301,478.093903 
	C1786.883179,477.307983 1786.737671,476.522034 1786.617676,475.307373 
	C1766.410889,475.307373 1746.455444,475.307373 1725.500000,475.309906 
M1418.500000,411.007324 
	C1482.907959,411.007324 1547.316040,411.007324 1611.738037,411.007324 
	C1611.856934,409.571716 1611.958740,408.916534 1611.958862,408.261353 
	C1611.968140,329.102539 1611.971680,249.943726 1611.955933,170.784912 
	C1611.955566,169.463547 1611.855469,168.109619 1611.560913,166.826202 
	C1609.843384,159.342361 1604.783203,155.934784 1595.408691,155.934631 
	C1459.422119,155.932587 1323.435425,155.934814 1187.448853,155.941223 
	C1125.621582,155.944122 1063.794312,155.946671 1001.967102,155.979309 
	C991.748291,155.984711 986.327393,161.462128 986.163574,171.740067 
	C986.137024,173.406204 986.149170,175.072998 986.148987,176.739487 
	C986.140198,253.231949 986.130798,329.724426 986.133240,406.216888 
	C986.133301,407.668610 986.274658,409.120361 986.372742,411.007690 
	C1130.279541,411.007690 1273.889771,411.007690 1418.500000,411.007324 
M1629.757202,778.971924 
	C1634.249512,761.882690 1624.339111,749.168213 1606.521240,749.168945 
	C1531.711182,749.171997 1456.901123,749.174866 1382.091064,749.181885 
	C1311.946167,749.188477 1241.801270,749.173950 1171.656372,749.232117 
	C1158.048096,749.243408 1148.862427,758.437744 1148.850830,771.701782 
	C1148.839844,784.287292 1158.245483,793.751526 1171.025146,793.752563 
	C1316.646851,793.764709 1462.268433,793.743530 1607.890137,793.727661 
	C1618.110107,793.726562 1625.369263,789.155762 1629.757202,778.971924 
M1519.500000,852.711182 
	C1436.874634,852.704834 1354.249268,852.694519 1271.623901,852.695984 
	C1257.995117,852.696228 1248.260010,862.107239 1248.211426,875.267822 
	C1248.164429,887.991638 1257.917358,897.382751 1271.429810,897.384888 
	C1383.540039,897.402588 1495.650269,897.396423 1607.760498,897.305298 
	C1611.016357,897.302612 1614.502197,896.846619 1617.484741,895.630676 
	C1627.273071,891.640442 1632.634155,881.283936 1630.571899,871.274048 
	C1628.283691,860.166748 1619.884399,852.779236 1608.955200,852.742615 
	C1579.470459,852.643799 1549.985107,852.707153 1519.500000,852.711182 
M1738.438354,357.007690 
	C1721.494873,350.926208 1704.018677,353.604736 1686.626465,353.115387 
	C1686.626465,372.780731 1686.626465,391.698975 1686.626465,410.636597 
	C1719.954224,410.636597 1752.947998,410.636597 1785.993042,410.636597 
	C1782.913574,388.595032 1764.329956,367.518433 1738.438354,357.007690 
M842.368164,365.841675 
	C826.726379,376.930084 815.992737,391.331207 811.847900,410.726807 
	C845.425537,410.726807 878.594666,410.726807 911.784607,410.726807 
	C911.784607,391.423737 911.784607,372.411591 911.784607,353.047577 
	C902.866882,353.047577 894.398071,353.129669 885.931335,353.029755 
	C870.347778,352.845917 856.056396,357.038269 842.368164,365.841675 
z"/>
<path fill="#396AB3" opacity="1.000000" stroke="none" 
	d="
M1853.165283,667.626587 
	C1852.689209,666.430908 1852.094971,664.860107 1852.094116,663.289062 
	C1852.050293,581.377197 1852.054932,499.465302 1852.073853,417.553436 
	C1852.074097,416.241699 1852.311279,414.930023 1852.715698,413.310608 
	C1853.283569,417.476807 1853.823242,421.950562 1853.826416,426.424683 
	C1853.882080,503.878387 1853.877686,581.332092 1853.852661,658.785828 
	C1853.851807,661.607727 1853.507935,664.429443 1853.165283,667.626587 
z"/>
<path fill="#FDFDFE" opacity="1.000000" stroke="none" 
	d="
M1726.000000,475.308655 
	C1746.455444,475.307373 1766.410889,475.307373 1786.617676,475.307373 
	C1786.737671,476.522034 1786.883179,477.307983 1786.883301,478.093903 
	C1786.889526,533.253052 1786.897339,588.412170 1786.868042,643.571289 
	C1786.862305,654.192322 1781.133911,659.813660 1770.464478,659.876709 
	C1770.131226,659.878723 1769.797852,659.879333 1769.464600,659.879333 
	C1582.490112,659.874207 1395.515503,659.864807 1208.541016,659.865173 
	C1083.558105,659.865417 958.575134,659.879639 833.592224,659.887512 
	C831.259216,659.887634 828.925964,659.903625 826.593140,659.882080 
	C816.735901,659.791016 811.049683,654.233032 811.016052,644.390198 
	C810.952209,625.726379 811.012573,607.062073 811.015991,588.398010 
	C811.022644,552.569580 811.025452,516.741150 811.029785,480.912750 
	C811.030029,479.260956 811.029846,477.609192 811.029846,475.309906 
	C1116.043335,475.309906 1420.771606,475.309906 1726.000000,475.308655 
M1714.088135,538.154663 
	C1713.102661,537.990112 1712.117920,537.822144 1711.131714,537.661621 
	C1697.554932,535.451477 1683.189819,542.436462 1676.037231,554.725159 
	C1668.673096,567.377502 1669.747437,581.931274 1678.896484,593.459412 
	C1687.589355,604.412842 1703.105835,609.210693 1716.198853,604.994019 
	C1730.343018,600.438843 1740.835083,586.288269 1740.747681,571.884705 
	C1740.654175,556.470215 1730.690552,543.558655 1714.088135,538.154663 
M1624.634521,577.807922 
	C1624.758789,575.651245 1625.006470,573.493530 1624.988159,571.338074 
	C1624.824219,552.089905 1608.919800,536.586609 1590.059570,537.241272 
	C1570.955811,537.904419 1555.301758,554.503052 1556.080933,573.270081 
	C1556.791870,590.392700 1570.263916,604.450256 1587.732788,606.297607 
	C1604.922485,608.115417 1619.801880,596.892395 1624.634521,577.807922 
z"/>
<path fill="#FEFEFE" opacity="1.000000" stroke="none" 
	d="
M1418.000000,411.007507 
	C1273.889771,411.007690 1130.279541,411.007690 986.372742,411.007690 
	C986.274658,409.120361 986.133301,407.668610 986.133240,406.216888 
	C986.130798,329.724426 986.140198,253.231949 986.148987,176.739487 
	C986.149170,175.072998 986.137024,173.406204 986.163574,171.740067 
	C986.327393,161.462128 991.748291,155.984711 1001.967102,155.979309 
	C1063.794312,155.946671 1125.621582,155.944122 1187.448853,155.941223 
	C1323.435425,155.934814 1459.422119,155.932587 1595.408691,155.934631 
	C1604.783203,155.934784 1609.843384,159.342361 1611.560913,166.826202 
	C1611.855469,168.109619 1611.955566,169.463547 1611.955933,170.784912 
	C1611.971680,249.943726 1611.968140,329.102539 1611.958862,408.261353 
	C1611.958740,408.916534 1611.856934,409.571716 1611.738037,411.007324 
	C1547.316040,411.007324 1482.907959,411.007324 1418.000000,411.007507 
z"/>
<path fill="#FAFBFD" opacity="1.000000" stroke="none" 
	d="
M1629.592529,779.330200 
	C1625.369263,789.155762 1618.110107,793.726562 1607.890137,793.727661 
	C1462.268433,793.743530 1316.646851,793.764709 1171.025146,793.752563 
	C1158.245483,793.751526 1148.839844,784.287292 1148.850830,771.701782 
	C1148.862427,758.437744 1158.048096,749.243408 1171.656372,749.232117 
	C1241.801270,749.173950 1311.946167,749.188477 1382.091064,749.181885 
	C1456.901123,749.174866 1531.711182,749.171997 1606.521240,749.168945 
	C1624.339111,749.168213 1634.249512,761.882690 1629.592529,779.330200 
z"/>
<path fill="#FDFDFE" opacity="1.000000" stroke="none" 
	d="
M1520.000000,852.708618 
	C1549.985107,852.707153 1579.470459,852.643799 1608.955200,852.742615 
	C1619.884399,852.779236 1628.283691,860.166748 1630.571899,871.274048 
	C1632.634155,881.283936 1627.273071,891.640442 1617.484741,895.630676 
	C1614.502197,896.846619 1611.016357,897.302612 1607.760498,897.305298 
	C1495.650269,897.396423 1383.540039,897.402588 1271.429810,897.384888 
	C1257.917358,897.382751 1248.164429,887.991638 1248.211426,875.267822 
	C1248.260010,862.107239 1257.995117,852.696228 1271.623901,852.695984 
	C1354.249268,852.694519 1436.874634,852.704834 1520.000000,852.708618 
z"/>
<path fill="#FBFBFD" opacity="1.000000" stroke="none" 
	d="
M1738.815186,357.120056 
	C1764.329956,367.518433 1782.913574,388.595032 1785.993042,410.636597 
	C1752.947998,410.636597 1719.954224,410.636597 1686.626465,410.636597 
	C1686.626465,391.698975 1686.626465,372.780731 1686.626465,353.115387 
	C1704.018677,353.604736 1721.494873,350.926208 1738.815186,357.120056 
z"/>
<path fill="#FCFCFD" opacity="1.000000" stroke="none" 
	d="
M842.663208,365.631500 
	C856.056396,357.038269 870.347778,352.845917 885.931335,353.029755 
	C894.398071,353.129669 902.866882,353.047577 911.784607,353.047577 
	C911.784607,372.411591 911.784607,391.423737 911.784607,410.726807 
	C878.594666,410.726807 845.425537,410.726807 811.847900,410.726807 
	C815.992737,391.331207 826.726379,376.930084 842.663208,365.631500 
z"/>
<path fill="#1F57AB" opacity="1.000000" stroke="none" 
	d="
M1714.484741,538.259888 
	C1730.690552,543.558655 1740.654175,556.470215 1740.747681,571.884705 
	C1740.835083,586.288269 1730.343018,600.438843 1716.198853,604.994019 
	C1703.105835,609.210693 1687.589355,604.412842 1678.896484,593.459412 
	C1669.747437,581.931274 1668.673096,567.377502 1676.037231,554.725159 
	C1683.189819,542.436462 1697.554932,535.451477 1711.131714,537.661621 
	C1712.117920,537.822144 1713.102661,537.990112 1714.484741,538.259888 
z"/>
<path fill="#1F56AB" opacity="1.000000" stroke="none" 
	d="
M1624.520630,578.221802 
	C1619.801880,596.892395 1604.922485,608.115417 1587.732788,606.297607 
	C1570.263916,604.450256 1556.791870,590.392700 1556.080933,573.270081 
	C1555.301758,554.503052 1570.955811,537.904419 1590.059570,537.241272 
	C1608.919800,536.586609 1624.824219,552.089905 1624.988159,571.338074 
	C1625.006470,573.493530 1624.758789,575.651245 1624.520630,578.221802 
z"/>
</svg>